<svg xmlns="http://www.w3.org/2000/svg" xmlns:xlink="http://www.w3.org/1999/xlink" width="138" height="138" viewBox="0 0 138 138">
  <defs>
    <filter id="Icon_awesome-arrow-alt-circle-down">
      <feOffset dy="3" input="SourceAlpha"/>
      <feGaussianBlur stdDeviation="3" result="blur"/>
      <feFlood flood-opacity="0.502" result="color"/>
      <feComposite operator="out" in="SourceGraphic" in2="blur"/>
      <feComposite operator="in" in="color"/>
      <feComposite operator="in" in2="SourceGraphic"/>
    </filter>
  </defs>
  <g data-type="innerShadowGroup">
    <path id="Icon_awesome-arrow-alt-circle-down-2" data-name="Icon awesome-arrow-alt-circle-down" d="M138.563,69.563a69,69,0,1,1-69-69A68.988,68.988,0,0,1,138.563,69.563ZM57.321,37.288V69.563H37.594a3.341,3.341,0,0,0-2.365,5.7l31.968,31.8a3.308,3.308,0,0,0,4.7,0l31.968-31.8a3.339,3.339,0,0,0-2.365-5.7H81.8V37.288a3.349,3.349,0,0,0-3.339-3.339H60.659A3.349,3.349,0,0,0,57.321,37.288Z" transform="translate(-0.563 -0.563)" fill="#00e0bb"/>
    <g transform="matrix(1, 0, 0, 1, 0, 0)" filter="url(#Icon_awesome-arrow-alt-circle-down)">
      <path id="Icon_awesome-arrow-alt-circle-down-3" data-name="Icon awesome-arrow-alt-circle-down" d="M138.563,69.563a69,69,0,1,1-69-69A68.988,68.988,0,0,1,138.563,69.563ZM57.321,37.288V69.563H37.594a3.341,3.341,0,0,0-2.365,5.7l31.968,31.8a3.308,3.308,0,0,0,4.7,0l31.968-31.8a3.339,3.339,0,0,0-2.365-5.7H81.8V37.288a3.349,3.349,0,0,0-3.339-3.339H60.659A3.349,3.349,0,0,0,57.321,37.288Z" transform="translate(-0.56 -0.56)" fill="#fff"/>
    </g>
  </g>
</svg>
