<svg xmlns="http://www.w3.org/2000/svg" xmlns:xlink="http://www.w3.org/1999/xlink" width="69.664" height="69.664" viewBox="0 0 69.664 69.664">
  <defs>
    <filter id="Icon_awesome-bootstrap">
      <feOffset dy="3" input="SourceAlpha"/>
      <feGaussianBlur stdDeviation="3" result="blur"/>
      <feFlood flood-opacity="0.502" result="color"/>
      <feComposite operator="out" in="SourceGraphic" in2="blur"/>
      <feComposite operator="in" in="color"/>
      <feComposite operator="in" in2="SourceGraphic"/>
    </filter>
  </defs>
  <g data-type="innerShadowGroup">
    <path id="Icon_awesome-bootstrap-2" data-name="Icon awesome-bootstrap" d="M45.453,45.779c0,6.595-6.176,6.442-6.83,6.442H26.045v-12.7H38.623c6.618,0,6.83,4.96,6.83,6.26Zm-7.8-11.372c.1,0,5.977.155,5.977-5.646,0-2.413-.546-5.578-5.977-5.578H26.045V34.407Zm32.01-20.546V60.3A11.645,11.645,0,0,1,58.053,71.914H11.611A11.645,11.645,0,0,1,0,60.3V13.861A11.645,11.645,0,0,1,11.611,2.25H58.053A11.645,11.645,0,0,1,69.664,13.861ZM52.567,46.7c0-3.354-1.034-9.064-7.627-10.473v-.114a8.909,8.909,0,0,0,5.806-8.652c0-1.089.311-10.073-12.067-10.073H18.931V58.026c19.94,0,21.75.261,25.44-.888,2.21-.687,8.2-2.8,8.2-10.437Z" transform="translate(0 -2.25)" fill="#005c4d"/>
    <g transform="matrix(1, 0, 0, 1, 0, 0)" filter="url(#Icon_awesome-bootstrap)">
      <path id="Icon_awesome-bootstrap-3" data-name="Icon awesome-bootstrap" d="M45.453,45.779c0,6.595-6.176,6.442-6.83,6.442H26.045v-12.7H38.623c6.618,0,6.83,4.96,6.83,6.26Zm-7.8-11.372c.1,0,5.977.155,5.977-5.646,0-2.413-.546-5.578-5.977-5.578H26.045V34.407Zm32.01-20.546V60.3A11.645,11.645,0,0,1,58.053,71.914H11.611A11.645,11.645,0,0,1,0,60.3V13.861A11.645,11.645,0,0,1,11.611,2.25H58.053A11.645,11.645,0,0,1,69.664,13.861ZM52.567,46.7c0-3.354-1.034-9.064-7.627-10.473v-.114a8.909,8.909,0,0,0,5.806-8.652c0-1.089.311-10.073-12.067-10.073H18.931V58.026c19.94,0,21.75.261,25.44-.888,2.21-.687,8.2-2.8,8.2-10.437Z" transform="translate(0 -2.25)" fill="#fff"/>
    </g>
  </g>
</svg>
