<svg xmlns="http://www.w3.org/2000/svg" xmlns:xlink="http://www.w3.org/1999/xlink" width="33.195" height="107.352" viewBox="0 0 33.195 107.352">
  <defs>
    <filter id="Path_155" x="0" y="0" width="33.195" height="107.352" filterUnits="userSpaceOnUse">
      <feOffset dy="3" input="SourceAlpha"/>
      <feGaussianBlur stdDeviation="3" result="blur"/>
      <feFlood flood-opacity="0.502" result="color"/>
      <feComposite operator="out" in="SourceGraphic" in2="blur"/>
      <feComposite operator="in" in="color"/>
      <feComposite operator="in" in2="SourceGraphic"/>
    </filter>
  </defs>
  <g data-type="innerShadowGroup">
    <path id="Path_155-2" data-name="Path 155" d="M1.039,13.727q11.1-3.555,11.484-18.1V-16.406q0-12.633,9.9-17.227-9.9-4.484-9.9-17.227v-11.1q0-15.422-11.43-19.086l2.078-6.289q9.68,2.734,14.547,8.887t4.922,16.27V-50.7q0,13.07,11.594,13.07v7.93q-11.594,0-11.594,13.289V-5.359q0,10.281-4.949,16.461T3.172,20.016Z" transform="translate(-1.039 87.336)" fill="#006151"/>
    <g transform="matrix(1, 0, 0, 1, 0, 0)" filter="url(#Path_155)">
      <path id="Path_155-3" data-name="Path 155" d="M1.039,13.727q11.1-3.555,11.484-18.1V-16.406q0-12.633,9.9-17.227-9.9-4.484-9.9-17.227v-11.1q0-15.422-11.43-19.086l2.078-6.289q9.68,2.734,14.547,8.887t4.922,16.27V-50.7q0,13.07,11.594,13.07v7.93q-11.594,0-11.594,13.289V-5.359q0,10.281-4.949,16.461T3.172,20.016Z" transform="translate(-1.04 87.34)" fill="#fff"/>
    </g>
  </g>
</svg>
