<svg xmlns="http://www.w3.org/2000/svg" xmlns:xlink="http://www.w3.org/1999/xlink" width="57.303" height="66.853" viewBox="0 0 57.303 66.853">
  <defs>
    <filter id="Icon_awesome-css3-alt">
      <feOffset dy="3" input="SourceAlpha"/>
      <feGaussianBlur stdDeviation="3" result="blur"/>
      <feFlood flood-opacity="0.502" result="color"/>
      <feComposite operator="out" in="SourceGraphic" in2="blur"/>
      <feComposite operator="in" in="color"/>
      <feComposite operator="in" in2="SourceGraphic"/>
    </filter>
  </defs>
  <g data-type="innerShadowGroup">
    <path id="Icon_awesome-css3-alt-2" data-name="Icon awesome-css3-alt" d="M0,2.25,5.208,61.314,28.651,69.1l23.443-7.79L57.3,2.25ZM46.723,14.188l-.716,7.058L28.8,28.6l-.045.015H45.395l-1.91,21.877L28.83,54.778,14.087,50.42l-.955-11.028h7.3l.478,5.715,7.849,1.985,8.163-2.3.552-9.192-24.816-.075v-.015l-.03.015-.537-6.909,16.728-6.969.97-.4H11.446l-.866-7.058Z" transform="translate(0 -2.25)" fill="#006151"/>
    <g transform="matrix(1, 0, 0, 1, 0, 0)" filter="url(#Icon_awesome-css3-alt)">
      <path id="Icon_awesome-css3-alt-3" data-name="Icon awesome-css3-alt" d="M0,2.25,5.208,61.314,28.651,69.1l23.443-7.79L57.3,2.25ZM46.723,14.188l-.716,7.058L28.8,28.6l-.045.015H45.395l-1.91,21.877L28.83,54.778,14.087,50.42l-.955-11.028h7.3l.478,5.715,7.849,1.985,8.163-2.3.552-9.192-24.816-.075v-.015l-.03.015-.537-6.909,16.728-6.969.97-.4H11.446l-.866-7.058Z" transform="translate(0 -2.25)" fill="#fff"/>
    </g>
  </g>
</svg>
