<svg xmlns="http://www.w3.org/2000/svg" xmlns:xlink="http://www.w3.org/1999/xlink" width="69.361" height="69.361" viewBox="0 0 69.361 69.361">
  <defs>
    <filter id="Path_156">
      <feOffset dy="3" input="SourceAlpha"/>
      <feGaussianBlur stdDeviation="3" result="blur"/>
      <feFlood flood-opacity="0.502" result="color"/>
      <feComposite operator="out" in="SourceGraphic" in2="blur"/>
      <feComposite operator="in" in="color"/>
      <feComposite operator="in" in2="SourceGraphic"/>
    </filter>
  </defs>
  <g data-type="innerShadowGroup">
    <path id="Path_156-2" data-name="Path 156" d="M.918,0H68.443c.507,0,.918.282.918.629v68.1c0,.347-.411.629-.918.629H.918c-.507,0-.918-.282-.918-.629V.629C0,.282.411,0,.918,0Zm25.1,56.045h6.73V52.863h-6.73V49.12h7.974v-3.3H21.736V63.568H33.965V60.276H26.016Zm18.2,1.341a1.752,1.752,0,0,1,.671,1.463,1.52,1.52,0,0,1-.622,1.292,2.753,2.753,0,0,1-1.67.451,3.533,3.533,0,0,1-2.4-.671,2.756,2.756,0,0,1-.732-2.109H35.172a5.586,5.586,0,0,0,.878,3.109,5.992,5.992,0,0,0,2.634,2.121,9.664,9.664,0,0,0,3.914.768,7.81,7.81,0,0,0,4.816-1.329,4.335,4.335,0,0,0,1.756-3.658,5.081,5.081,0,0,0-2.877-4.572,15.524,15.524,0,0,0-3.024-1.268A9.471,9.471,0,0,1,40.7,51.839a1.578,1.578,0,0,1-.732-1.244,1.54,1.54,0,0,1,.658-1.28,2.921,2.921,0,0,1,1.817-.512,2.567,2.567,0,0,1,1.792.6,2.136,2.136,0,0,1,.671,1.683h4.267a5.048,5.048,0,0,0-.841-2.877,5.413,5.413,0,0,0-2.365-1.951,8.238,8.238,0,0,0-3.426-.683A9.386,9.386,0,0,0,39,46.206a5.537,5.537,0,0,0-2.438,1.756,4.171,4.171,0,0,0-.853,2.6q0,2.963,3.45,4.658A22.435,22.435,0,0,0,41.89,56.3,8.149,8.149,0,0,1,44.219,57.387Zm16.838-8.6V45.56h-.622a9.6,9.6,0,0,0-4.84,1.244,8.56,8.56,0,0,0-3.365,3.438,10.256,10.256,0,0,0-1.17,4.926v1.646a8.091,8.091,0,0,0,.853,3.682,5.948,5.948,0,0,0,2.316,2.463,6.664,6.664,0,0,0,3.377.853,6.416,6.416,0,0,0,3.17-.792A5.688,5.688,0,0,0,63.007,60.8a6.178,6.178,0,0,0,.8-3.109,6.786,6.786,0,0,0-1.366-4.414,4.482,4.482,0,0,0-3.67-1.683,4.8,4.8,0,0,0-3.511,1.366,4.645,4.645,0,0,1,1.817-3.06,6.171,6.171,0,0,1,3.792-1.11Zm-5.072,6.328a2.351,2.351,0,0,1,1.366-.378,2.026,2.026,0,0,1,1.695.829,3.318,3.318,0,0,1,.646,2.121,3.406,3.406,0,0,1-.634,2.109,1.874,1.874,0,0,1-1.561.841q-2.329,0-2.329-3.365V56.045A2.4,2.4,0,0,1,55.984,55.119Z" fill="#006151" fill-rule="evenodd"/>
    <g transform="matrix(1, 0, 0, 1, 0, 0)" filter="url(#Path_156)">
      <path id="Path_156-3" data-name="Path 156" d="M.918,0H68.443c.507,0,.918.282.918.629v68.1c0,.347-.411.629-.918.629H.918c-.507,0-.918-.282-.918-.629V.629C0,.282.411,0,.918,0Zm25.1,56.045h6.73V52.863h-6.73V49.12h7.974v-3.3H21.736V63.568H33.965V60.276H26.016Zm18.2,1.341a1.752,1.752,0,0,1,.671,1.463,1.52,1.52,0,0,1-.622,1.292,2.753,2.753,0,0,1-1.67.451,3.533,3.533,0,0,1-2.4-.671,2.756,2.756,0,0,1-.732-2.109H35.172a5.586,5.586,0,0,0,.878,3.109,5.992,5.992,0,0,0,2.634,2.121,9.664,9.664,0,0,0,3.914.768,7.81,7.81,0,0,0,4.816-1.329,4.335,4.335,0,0,0,1.756-3.658,5.081,5.081,0,0,0-2.877-4.572,15.524,15.524,0,0,0-3.024-1.268A9.471,9.471,0,0,1,40.7,51.839a1.578,1.578,0,0,1-.732-1.244,1.54,1.54,0,0,1,.658-1.28,2.921,2.921,0,0,1,1.817-.512,2.567,2.567,0,0,1,1.792.6,2.136,2.136,0,0,1,.671,1.683h4.267a5.048,5.048,0,0,0-.841-2.877,5.413,5.413,0,0,0-2.365-1.951,8.238,8.238,0,0,0-3.426-.683A9.386,9.386,0,0,0,39,46.206a5.537,5.537,0,0,0-2.438,1.756,4.171,4.171,0,0,0-.853,2.6q0,2.963,3.45,4.658A22.435,22.435,0,0,0,41.89,56.3,8.149,8.149,0,0,1,44.219,57.387Zm16.838-8.6V45.56h-.622a9.6,9.6,0,0,0-4.84,1.244,8.56,8.56,0,0,0-3.365,3.438,10.256,10.256,0,0,0-1.17,4.926v1.646a8.091,8.091,0,0,0,.853,3.682,5.948,5.948,0,0,0,2.316,2.463,6.664,6.664,0,0,0,3.377.853,6.416,6.416,0,0,0,3.17-.792A5.688,5.688,0,0,0,63.007,60.8a6.178,6.178,0,0,0,.8-3.109,6.786,6.786,0,0,0-1.366-4.414,4.482,4.482,0,0,0-3.67-1.683,4.8,4.8,0,0,0-3.511,1.366,4.645,4.645,0,0,1,1.817-3.06,6.171,6.171,0,0,1,3.792-1.11Zm-5.072,6.328a2.351,2.351,0,0,1,1.366-.378,2.026,2.026,0,0,1,1.695.829,3.318,3.318,0,0,1,.646,2.121,3.406,3.406,0,0,1-.634,2.109,1.874,1.874,0,0,1-1.561.841q-2.329,0-2.329-3.365V56.045A2.4,2.4,0,0,1,55.984,55.119Z" fill="#fff" fill-rule="evenodd"/>
    </g>
  </g>
</svg>
