<svg xmlns="http://www.w3.org/2000/svg" xmlns:xlink="http://www.w3.org/1999/xlink" width="79.565" height="77.577" viewBox="0 0 79.565 77.577">
  <defs>
    <filter id="Icon_awesome-github" x="0" y="0" width="79.565" height="77.577" filterUnits="userSpaceOnUse">
      <feOffset dy="3" input="SourceAlpha"/>
      <feGaussianBlur stdDeviation="3" result="blur"/>
      <feFlood flood-opacity="0.502" result="color"/>
      <feComposite operator="out" in="SourceGraphic" in2="blur"/>
      <feComposite operator="in" in="color"/>
      <feComposite operator="in" in2="SourceGraphic"/>
    </filter>
  </defs>
  <g data-type="innerShadowGroup">
    <path id="Icon_awesome-github-2" data-name="Icon awesome-github" d="M26.613,63.028c0,.321-.369.577-.834.577-.529.048-.9-.209-.9-.577,0-.321.369-.577.834-.577C26.2,62.4,26.613,62.659,26.613,63.028Zm-4.989-.722c-.112.321.209.69.69.786a.752.752,0,0,0,.995-.321c.1-.321-.209-.69-.69-.834A.823.823,0,0,0,21.624,62.306Zm7.09-.273c-.465.112-.786.417-.738.786.048.321.465.529.946.417.465-.112.786-.417.738-.738C29.612,62.194,29.179,61.985,28.714,62.033ZM39.269.563C17.02.563,0,17.454,0,39.7A40.217,40.217,0,0,0,27.19,78.075c2.053.369,2.775-.9,2.775-1.941,0-.995-.048-6.481-.048-9.849,0,0-11.229,2.406-13.587-4.78,0,0-1.829-4.668-4.46-5.871,0,0-3.673-2.519.257-2.47A8.468,8.468,0,0,1,18.319,57.3c3.513,6.192,9.4,4.411,11.694,3.353a8.916,8.916,0,0,1,2.567-5.406c-8.967-.995-18.014-2.294-18.014-17.726,0-4.411,1.219-6.625,3.786-9.448a15.156,15.156,0,0,1,.417-10.892c3.353-1.043,11.069,4.331,11.069,4.331a37.9,37.9,0,0,1,20.148,0s7.716-5.39,11.069-4.331a15.149,15.149,0,0,1,.417,10.892c2.567,2.839,4.139,5.053,4.139,9.448,0,15.48-9.448,16.715-18.416,17.726,1.476,1.267,2.727,3.673,2.727,7.443,0,5.406-.048,12.1-.048,13.411,0,1.043.738,2.31,2.775,1.941C68.689,72.717,79.565,57.493,79.565,39.7,79.565,17.454,61.519.563,39.269.563ZM15.592,55.889c-.209.16-.16.529.112.834.257.257.626.369.834.16.209-.16.16-.529-.112-.834C16.17,55.793,15.8,55.681,15.592,55.889Zm-1.732-1.3c-.112.209.048.465.369.626a.477.477,0,0,0,.69-.112c.112-.209-.048-.465-.369-.626C14.229,54.381,13.972,54.43,13.86,54.59Zm5.2,5.711c-.257.209-.16.69.209.995.369.369.834.417,1.043.16.209-.209.112-.69-.209-.995C19.747,60.092,19.266,60.044,19.057,60.3Zm-1.829-2.358c-.257.16-.257.577,0,.946s.69.529.9.369a.732.732,0,0,0,0-.995C17.9,57.894,17.485,57.734,17.228,57.943Z" transform="translate(0 -0.563)" fill="#006151"/>
    <g transform="matrix(1, 0, 0, 1, 0, 0)" filter="url(#Icon_awesome-github)">
      <path id="Icon_awesome-github-3" data-name="Icon awesome-github" d="M26.613,63.028c0,.321-.369.577-.834.577-.529.048-.9-.209-.9-.577,0-.321.369-.577.834-.577C26.2,62.4,26.613,62.659,26.613,63.028Zm-4.989-.722c-.112.321.209.69.69.786a.752.752,0,0,0,.995-.321c.1-.321-.209-.69-.69-.834A.823.823,0,0,0,21.624,62.306Zm7.09-.273c-.465.112-.786.417-.738.786.048.321.465.529.946.417.465-.112.786-.417.738-.738C29.612,62.194,29.179,61.985,28.714,62.033ZM39.269.563C17.02.563,0,17.454,0,39.7A40.217,40.217,0,0,0,27.19,78.075c2.053.369,2.775-.9,2.775-1.941,0-.995-.048-6.481-.048-9.849,0,0-11.229,2.406-13.587-4.78,0,0-1.829-4.668-4.46-5.871,0,0-3.673-2.519.257-2.47A8.468,8.468,0,0,1,18.319,57.3c3.513,6.192,9.4,4.411,11.694,3.353a8.916,8.916,0,0,1,2.567-5.406c-8.967-.995-18.014-2.294-18.014-17.726,0-4.411,1.219-6.625,3.786-9.448a15.156,15.156,0,0,1,.417-10.892c3.353-1.043,11.069,4.331,11.069,4.331a37.9,37.9,0,0,1,20.148,0s7.716-5.39,11.069-4.331a15.149,15.149,0,0,1,.417,10.892c2.567,2.839,4.139,5.053,4.139,9.448,0,15.48-9.448,16.715-18.416,17.726,1.476,1.267,2.727,3.673,2.727,7.443,0,5.406-.048,12.1-.048,13.411,0,1.043.738,2.31,2.775,1.941C68.689,72.717,79.565,57.493,79.565,39.7,79.565,17.454,61.519.563,39.269.563ZM15.592,55.889c-.209.16-.16.529.112.834.257.257.626.369.834.16.209-.16.16-.529-.112-.834C16.17,55.793,15.8,55.681,15.592,55.889Zm-1.732-1.3c-.112.209.048.465.369.626a.477.477,0,0,0,.69-.112c.112-.209-.048-.465-.369-.626C14.229,54.381,13.972,54.43,13.86,54.59Zm5.2,5.711c-.257.209-.16.69.209.995.369.369.834.417,1.043.16.209-.209.112-.69-.209-.995C19.747,60.092,19.266,60.044,19.057,60.3Zm-1.829-2.358c-.257.16-.257.577,0,.946s.69.529.9.369a.732.732,0,0,0,0-.995C17.9,57.894,17.485,57.734,17.228,57.943Z" transform="translate(0 -0.56)" fill="#fff"/>
    </g>
  </g>
</svg>
