<svg xmlns="http://www.w3.org/2000/svg" xmlns:xlink="http://www.w3.org/1999/xlink" width="62.924" height="62.924" viewBox="0 0 62.924 62.924">
  <defs>
    <filter id="Icon_awesome-js">
      <feOffset dy="3" input="SourceAlpha"/>
      <feGaussianBlur stdDeviation="3" result="blur"/>
      <feFlood flood-opacity="0.502" result="color"/>
      <feComposite operator="out" in="SourceGraphic" in2="blur"/>
      <feComposite operator="in" in="color"/>
      <feComposite operator="in" in2="SourceGraphic"/>
    </filter>
  </defs>
  <g data-type="innerShadowGroup">
    <path id="Icon_awesome-js-2" data-name="Icon awesome-js" d="M0,2.25V65.174H62.924V2.25ZM34.243,51.325c0,6.124-3.6,8.919-8.835,8.919a9.186,9.186,0,0,1-8.877-5.408l4.818-2.907c.927,1.643,1.77,3.034,3.806,3.034,1.938,0,3.174-.758,3.174-3.722v-20.1h5.913Zm13.989,8.919c-5.492,0-9.045-2.612-10.773-6.04l4.818-2.781c1.264,2.065,2.921,3.6,5.829,3.6,2.444,0,4.017-1.222,4.017-2.921,0-2.023-1.6-2.739-4.312-3.933l-1.475-.632c-4.27-1.812-7.093-4.1-7.093-8.919,0-4.438,3.385-7.809,8.652-7.809,3.764,0,6.461,1.306,8.4,4.733l-4.607,2.95c-1.011-1.812-2.107-2.528-3.806-2.528a2.567,2.567,0,0,0-2.823,2.528c0,1.77,1.1,2.486,3.638,3.6l1.475.632c5.028,2.149,7.851,4.354,7.851,9.3,0,5.309-4.186,8.231-9.79,8.231Z" transform="translate(0 -2.25)" fill="#006151"/>
    <g transform="matrix(1, 0, 0, 1, 0, 0)" filter="url(#Icon_awesome-js)">
      <path id="Icon_awesome-js-3" data-name="Icon awesome-js" d="M0,2.25V65.174H62.924V2.25ZM34.243,51.325c0,6.124-3.6,8.919-8.835,8.919a9.186,9.186,0,0,1-8.877-5.408l4.818-2.907c.927,1.643,1.77,3.034,3.806,3.034,1.938,0,3.174-.758,3.174-3.722v-20.1h5.913Zm13.989,8.919c-5.492,0-9.045-2.612-10.773-6.04l4.818-2.781c1.264,2.065,2.921,3.6,5.829,3.6,2.444,0,4.017-1.222,4.017-2.921,0-2.023-1.6-2.739-4.312-3.933l-1.475-.632c-4.27-1.812-7.093-4.1-7.093-8.919,0-4.438,3.385-7.809,8.652-7.809,3.764,0,6.461,1.306,8.4,4.733l-4.607,2.95c-1.011-1.812-2.107-2.528-3.806-2.528a2.567,2.567,0,0,0-2.823,2.528c0,1.77,1.1,2.486,3.638,3.6l1.475.632c5.028,2.149,7.851,4.354,7.851,9.3,0,5.309-4.186,8.231-9.79,8.231Z" transform="translate(0 -2.25)" fill="#fff"/>
    </g>
  </g>
</svg>
