<svg xmlns="http://www.w3.org/2000/svg" xmlns:xlink="http://www.w3.org/1999/xlink" width="95.76" height="76.608" viewBox="0 0 95.76 76.608">
  <defs>
    <filter id="Icon_material-email">
      <feOffset dy="3" input="SourceAlpha"/>
      <feGaussianBlur stdDeviation="3" result="blur"/>
      <feFlood flood-opacity="0.502" result="color"/>
      <feComposite operator="out" in="SourceGraphic" in2="blur"/>
      <feComposite operator="in" in="color"/>
      <feComposite operator="in" in2="SourceGraphic"/>
    </filter>
  </defs>
  <g data-type="innerShadowGroup">
    <path id="Icon_material-email-2" data-name="Icon material-email" d="M89.184,6H12.576a9.563,9.563,0,0,0-9.528,9.576L3,73.032a9.6,9.6,0,0,0,9.576,9.576H89.184a9.6,9.6,0,0,0,9.576-9.576V15.576A9.6,9.6,0,0,0,89.184,6Zm0,19.152-38.3,23.94-38.3-23.94V15.576l38.3,23.94,38.3-23.94Z" transform="translate(-3 -6)" fill="#006151"/>
    <g transform="matrix(1, 0, 0, 1, 0, 0)" filter="url(#Icon_material-email)">
      <path id="Icon_material-email-3" data-name="Icon material-email" d="M89.184,6H12.576a9.563,9.563,0,0,0-9.528,9.576L3,73.032a9.6,9.6,0,0,0,9.576,9.576H89.184a9.6,9.6,0,0,0,9.576-9.576V15.576A9.6,9.6,0,0,0,89.184,6Zm0,19.152-38.3,23.94-38.3-23.94V15.576l38.3,23.94,38.3-23.94Z" transform="translate(-3 -6)" fill="#fff"/>
    </g>
  </g>
</svg>
