<svg xmlns="http://www.w3.org/2000/svg" xmlns:xlink="http://www.w3.org/1999/xlink" width="62.756" height="70.783" viewBox="0 0 62.756 70.783">
  <defs>
    <filter id="Icon_awesome-node-js">
      <feOffset dy="3" input="SourceAlpha"/>
      <feGaussianBlur stdDeviation="3" result="blur"/>
      <feFlood flood-opacity="0.502" result="color"/>
      <feComposite operator="out" in="SourceGraphic" in2="blur"/>
      <feComposite operator="in" in="color"/>
      <feComposite operator="in" in2="SourceGraphic"/>
    </filter>
  </defs>
  <g data-type="innerShadowGroup">
    <path id="Icon_awesome-node-js-2" data-name="Icon awesome-node-js" d="M31.413,71.067a5.5,5.5,0,0,1-2.725-.73L20.022,65.21c-1.292-.73-.66-.983-.239-1.124A17.071,17.071,0,0,0,23.7,62.3a.634.634,0,0,1,.646.056l6.658,3.947a.813.813,0,0,0,.8,0L57.748,51.333a.832.832,0,0,0,.393-.7V20.686a.837.837,0,0,0-.407-.716L31.806,5.011a.813.813,0,0,0-.8,0L5.092,19.984a.82.82,0,0,0-.407.716V50.631a.775.775,0,0,0,.407.688l7.107,4.1c3.863,1.924,6.222-.337,6.222-2.627V23.242a.744.744,0,0,1,.758-.744h3.287a.752.752,0,0,1,.758.744V52.808c0,5.141-2.809,8.09-7.683,8.09-1.5,0-2.683,0-5.969-1.629l-6.8-3.919A5.462,5.462,0,0,1,.049,50.617V20.686a5.479,5.479,0,0,1,2.725-4.733L28.688.98a5.687,5.687,0,0,1,5.45,0L60.08,15.967A5.462,5.462,0,0,1,62.8,20.7V50.631a5.5,5.5,0,0,1-2.725,4.733L34.138,70.337a5.463,5.463,0,0,1-2.725.73Zm20.942-29.51c0-5.6-3.792-7.093-11.756-8.146-8.062-1.067-8.877-1.615-8.877-3.5,0-1.559.688-3.638,6.658-3.638,5.323,0,7.29,1.152,8.1,4.747a.752.752,0,0,0,.73.59h3.371a.733.733,0,0,0,.548-.239.782.782,0,0,0,.2-.576c-.52-6.194-4.635-9.073-12.95-9.073-7.4,0-11.812,3.118-11.812,8.357,0,5.674,4.4,7.247,11.489,7.95,8.5.829,9.158,2.079,9.158,3.75,0,2.893-2.332,4.129-7.8,4.129-6.868,0-8.371-1.728-8.877-5.141a.743.743,0,0,0-.744-.632H26.441a.74.74,0,0,0-.744.744c0,4.368,2.374,9.579,13.737,9.579,8.2-.014,12.922-3.259,12.922-8.9Z" transform="translate(-0.049 -0.285)" fill="#006151"/>
    <g transform="matrix(1, 0, 0, 1, 0, 0)" filter="url(#Icon_awesome-node-js)">
      <path id="Icon_awesome-node-js-3" data-name="Icon awesome-node-js" d="M31.413,71.067a5.5,5.5,0,0,1-2.725-.73L20.022,65.21c-1.292-.73-.66-.983-.239-1.124A17.071,17.071,0,0,0,23.7,62.3a.634.634,0,0,1,.646.056l6.658,3.947a.813.813,0,0,0,.8,0L57.748,51.333a.832.832,0,0,0,.393-.7V20.686a.837.837,0,0,0-.407-.716L31.806,5.011a.813.813,0,0,0-.8,0L5.092,19.984a.82.82,0,0,0-.407.716V50.631a.775.775,0,0,0,.407.688l7.107,4.1c3.863,1.924,6.222-.337,6.222-2.627V23.242a.744.744,0,0,1,.758-.744h3.287a.752.752,0,0,1,.758.744V52.808c0,5.141-2.809,8.09-7.683,8.09-1.5,0-2.683,0-5.969-1.629l-6.8-3.919A5.462,5.462,0,0,1,.049,50.617V20.686a5.479,5.479,0,0,1,2.725-4.733L28.688.98a5.687,5.687,0,0,1,5.45,0L60.08,15.967A5.462,5.462,0,0,1,62.8,20.7V50.631a5.5,5.5,0,0,1-2.725,4.733L34.138,70.337a5.463,5.463,0,0,1-2.725.73Zm20.942-29.51c0-5.6-3.792-7.093-11.756-8.146-8.062-1.067-8.877-1.615-8.877-3.5,0-1.559.688-3.638,6.658-3.638,5.323,0,7.29,1.152,8.1,4.747a.752.752,0,0,0,.73.59h3.371a.733.733,0,0,0,.548-.239.782.782,0,0,0,.2-.576c-.52-6.194-4.635-9.073-12.95-9.073-7.4,0-11.812,3.118-11.812,8.357,0,5.674,4.4,7.247,11.489,7.95,8.5.829,9.158,2.079,9.158,3.75,0,2.893-2.332,4.129-7.8,4.129-6.868,0-8.371-1.728-8.877-5.141a.743.743,0,0,0-.744-.632H26.441a.74.74,0,0,0-.744.744c0,4.368,2.374,9.579,13.737,9.579,8.2-.014,12.922-3.259,12.922-8.9Z" transform="translate(-0.05 -0.28)" fill="#fff"/>
    </g>
  </g>
</svg>
