<svg xmlns="http://www.w3.org/2000/svg" xmlns:xlink="http://www.w3.org/1999/xlink" width="71.911" height="62.926" viewBox="0 0 71.911 62.926">
  <defs>
    <filter id="Icon_awesome-react">
      <feOffset dy="3" input="SourceAlpha"/>
      <feGaussianBlur stdDeviation="3" result="blur"/>
      <feFlood flood-opacity="0.502" result="color"/>
      <feComposite operator="out" in="SourceGraphic" in2="blur"/>
      <feComposite operator="in" in="color"/>
      <feComposite operator="in" in2="SourceGraphic"/>
    </filter>
  </defs>
  <g data-type="innerShadowGroup">
    <path id="Icon_awesome-react-2" data-name="Icon awesome-react" d="M58.737,22.643q-1.138-.379-2.275-.716c.126-.52.239-1.039.351-1.559C58.54,12,57.4,5.269,53.568,3.05c-3.694-2.121-9.719.084-15.815,5.393-.6.52-1.194,1.067-1.756,1.615-.379-.365-.772-.73-1.166-1.081C28.441,3.3,22.037.915,18.2,3.148c-3.68,2.135-4.775,8.469-3.23,16.391.154.787.323,1.559.52,2.346-.9.253-1.784.534-2.612.829C5.379,25.311,0,29.412,0,33.654,0,38.036,5.73,42.432,13.526,45.1c.632.211,1.264.421,1.91.6-.211.843-.393,1.671-.562,2.528-1.475,7.8-.323,13.975,3.357,16.1,3.792,2.191,10.169-.056,16.377-5.492.492-.435.983-.885,1.475-1.362.618.6,1.264,1.18,1.91,1.742C44,64.385,49.945,66.478,53.61,64.357c3.792-2.191,5.028-8.834,3.427-16.924q-.19-.927-.421-1.9c.449-.126.885-.267,1.32-.407,8.1-2.683,13.975-7.023,13.975-11.475C71.911,29.4,66.378,25.269,58.737,22.643Zm-19-11.924c5.225-4.551,10.1-6.334,12.318-5.056,2.374,1.362,3.287,6.868,1.8,14.1-.1.478-.2.941-.323,1.4a71.9,71.9,0,0,0-9.452-1.489,70.963,70.963,0,0,0-5.983-7.458c.548-.52,1.081-1.011,1.643-1.5ZM23.484,40.944c.716,1.222,1.447,2.444,2.219,3.638a63.6,63.6,0,0,1-6.517-1.053,65.611,65.611,0,0,1,2.289-6.25c.646,1.236,1.306,2.458,2.008,3.666Zm-4.256-16.9c2.023-.449,4.171-.815,6.4-1.1-.744,1.166-1.475,2.36-2.163,3.567s-1.362,2.416-1.994,3.652c-.885-2.093-1.629-4.143-2.247-6.124Zm3.848,9.677c.927-1.938,1.938-3.834,3.006-5.7s2.219-3.68,3.427-5.464c2.107-.154,4.256-.239,6.447-.239s4.354.084,6.447.239q1.791,2.655,3.413,5.435t3.048,5.674q-1.412,2.907-3.034,5.73c-1.067,1.868-2.205,3.68-3.4,5.478-2.093.154-4.27.225-6.475.225s-4.34-.07-6.4-.2q-1.833-2.676-3.455-5.478c-1.081-1.868-2.079-3.764-3.02-5.7Zm25.366,7.191c.716-1.236,1.39-2.486,2.051-3.75a65.2,65.2,0,0,1,2.374,6.222,61.69,61.69,0,0,1-6.6,1.124C47.023,43.331,47.74,42.123,48.442,40.915Zm2.023-10.745c-.66-1.236-1.334-2.472-2.037-3.68s-1.4-2.374-2.149-3.539a64.634,64.634,0,0,1,6.447,1.124,62.159,62.159,0,0,1-2.261,6.1ZM35.984,14.37A61.676,61.676,0,0,1,40.141,19.4c-2.781-.126-5.576-.126-8.357,0C33.161,17.586,34.579,15.9,35.984,14.37ZM19.691,5.76c2.36-1.376,7.6.59,13.118,5.478.351.309.7.646,1.067.983a71.357,71.357,0,0,0-6.025,7.458,74.037,74.037,0,0,0-9.438,1.461c-.183-.716-.337-1.447-.492-2.177-1.32-6.8-.449-11.924,1.77-13.2ZM16.25,42.784c-.59-.169-1.166-.351-1.742-.548A28.646,28.646,0,0,1,5.66,37.854a6.3,6.3,0,0,1-2.64-4.2c0-2.57,4.438-5.857,10.843-8.09.8-.281,1.615-.534,2.43-.772a74.684,74.684,0,0,0,3.441,8.933,76.775,76.775,0,0,0-3.483,9.059ZM32.627,56.548a25.707,25.707,0,0,1-7.921,4.958,6.216,6.216,0,0,1-4.958.183c-2.233-1.292-3.16-6.25-1.9-12.922.154-.787.323-1.573.52-2.346A70.264,70.264,0,0,0,27.908,47.8a74.121,74.121,0,0,0,6.068,7.5C33.526,55.733,33.076,56.155,32.627,56.548Zm3.441-3.413c-1.433-1.545-2.865-3.258-4.256-5.1,1.348.056,2.739.084,4.143.084,1.447,0,2.865-.028,4.27-.1a60.571,60.571,0,0,1-4.157,5.112Zm18.357,4.214a6.242,6.242,0,0,1-2.317,4.4c-2.233,1.292-6.994-.393-12.135-4.8-.59-.506-1.18-1.053-1.784-1.615A69.479,69.479,0,0,0,44.116,47.8a69.237,69.237,0,0,0,9.579-1.475c.14.576.267,1.152.379,1.714a25.6,25.6,0,0,1,.351,9.312Zm2.556-15.1c-.393.126-.787.253-1.194.365a71.349,71.349,0,0,0-3.582-8.961,70.993,70.993,0,0,0,3.441-8.834c.73.211,1.433.435,2.107.66,6.545,2.247,11.138,5.59,11.138,8.146,0,2.753-4.9,6.306-11.91,8.624ZM35.956,40.143a6.433,6.433,0,1,0-6.433-6.433A6.432,6.432,0,0,0,35.956,40.143Z" transform="translate(0 -2.251)" fill="#006151"/>
    <g transform="matrix(1, 0, 0, 1, 0, 0)" filter="url(#Icon_awesome-react)">
      <path id="Icon_awesome-react-3" data-name="Icon awesome-react" d="M58.737,22.643q-1.138-.379-2.275-.716c.126-.52.239-1.039.351-1.559C58.54,12,57.4,5.269,53.568,3.05c-3.694-2.121-9.719.084-15.815,5.393-.6.52-1.194,1.067-1.756,1.615-.379-.365-.772-.73-1.166-1.081C28.441,3.3,22.037.915,18.2,3.148c-3.68,2.135-4.775,8.469-3.23,16.391.154.787.323,1.559.52,2.346-.9.253-1.784.534-2.612.829C5.379,25.311,0,29.412,0,33.654,0,38.036,5.73,42.432,13.526,45.1c.632.211,1.264.421,1.91.6-.211.843-.393,1.671-.562,2.528-1.475,7.8-.323,13.975,3.357,16.1,3.792,2.191,10.169-.056,16.377-5.492.492-.435.983-.885,1.475-1.362.618.6,1.264,1.18,1.91,1.742C44,64.385,49.945,66.478,53.61,64.357c3.792-2.191,5.028-8.834,3.427-16.924q-.19-.927-.421-1.9c.449-.126.885-.267,1.32-.407,8.1-2.683,13.975-7.023,13.975-11.475C71.911,29.4,66.378,25.269,58.737,22.643Zm-19-11.924c5.225-4.551,10.1-6.334,12.318-5.056,2.374,1.362,3.287,6.868,1.8,14.1-.1.478-.2.941-.323,1.4a71.9,71.9,0,0,0-9.452-1.489,70.963,70.963,0,0,0-5.983-7.458c.548-.52,1.081-1.011,1.643-1.5ZM23.484,40.944c.716,1.222,1.447,2.444,2.219,3.638a63.6,63.6,0,0,1-6.517-1.053,65.611,65.611,0,0,1,2.289-6.25c.646,1.236,1.306,2.458,2.008,3.666Zm-4.256-16.9c2.023-.449,4.171-.815,6.4-1.1-.744,1.166-1.475,2.36-2.163,3.567s-1.362,2.416-1.994,3.652c-.885-2.093-1.629-4.143-2.247-6.124Zm3.848,9.677c.927-1.938,1.938-3.834,3.006-5.7s2.219-3.68,3.427-5.464c2.107-.154,4.256-.239,6.447-.239s4.354.084,6.447.239q1.791,2.655,3.413,5.435t3.048,5.674q-1.412,2.907-3.034,5.73c-1.067,1.868-2.205,3.68-3.4,5.478-2.093.154-4.27.225-6.475.225s-4.34-.07-6.4-.2q-1.833-2.676-3.455-5.478c-1.081-1.868-2.079-3.764-3.02-5.7Zm25.366,7.191c.716-1.236,1.39-2.486,2.051-3.75a65.2,65.2,0,0,1,2.374,6.222,61.69,61.69,0,0,1-6.6,1.124C47.023,43.331,47.74,42.123,48.442,40.915Zm2.023-10.745c-.66-1.236-1.334-2.472-2.037-3.68s-1.4-2.374-2.149-3.539a64.634,64.634,0,0,1,6.447,1.124,62.159,62.159,0,0,1-2.261,6.1ZM35.984,14.37A61.676,61.676,0,0,1,40.141,19.4c-2.781-.126-5.576-.126-8.357,0C33.161,17.586,34.579,15.9,35.984,14.37ZM19.691,5.76c2.36-1.376,7.6.59,13.118,5.478.351.309.7.646,1.067.983a71.357,71.357,0,0,0-6.025,7.458,74.037,74.037,0,0,0-9.438,1.461c-.183-.716-.337-1.447-.492-2.177-1.32-6.8-.449-11.924,1.77-13.2ZM16.25,42.784c-.59-.169-1.166-.351-1.742-.548A28.646,28.646,0,0,1,5.66,37.854a6.3,6.3,0,0,1-2.64-4.2c0-2.57,4.438-5.857,10.843-8.09.8-.281,1.615-.534,2.43-.772a74.684,74.684,0,0,0,3.441,8.933,76.775,76.775,0,0,0-3.483,9.059ZM32.627,56.548a25.707,25.707,0,0,1-7.921,4.958,6.216,6.216,0,0,1-4.958.183c-2.233-1.292-3.16-6.25-1.9-12.922.154-.787.323-1.573.52-2.346A70.264,70.264,0,0,0,27.908,47.8a74.121,74.121,0,0,0,6.068,7.5C33.526,55.733,33.076,56.155,32.627,56.548Zm3.441-3.413c-1.433-1.545-2.865-3.258-4.256-5.1,1.348.056,2.739.084,4.143.084,1.447,0,2.865-.028,4.27-.1a60.571,60.571,0,0,1-4.157,5.112Zm18.357,4.214a6.242,6.242,0,0,1-2.317,4.4c-2.233,1.292-6.994-.393-12.135-4.8-.59-.506-1.18-1.053-1.784-1.615A69.479,69.479,0,0,0,44.116,47.8a69.237,69.237,0,0,0,9.579-1.475c.14.576.267,1.152.379,1.714a25.6,25.6,0,0,1,.351,9.312Zm2.556-15.1c-.393.126-.787.253-1.194.365a71.349,71.349,0,0,0-3.582-8.961,70.993,70.993,0,0,0,3.441-8.834c.73.211,1.433.435,2.107.66,6.545,2.247,11.138,5.59,11.138,8.146,0,2.753-4.9,6.306-11.91,8.624ZM35.956,40.143a6.433,6.433,0,1,0-6.433-6.433A6.432,6.432,0,0,0,35.956,40.143Z" transform="translate(0 -2.25)" fill="#fff"/>
    </g>
  </g>
</svg>
